<?xml version="1.0" encoding="UTF-8" standalone="no"?>
<!-- Created with Inkscape (http://www.inkscape.org/) -->

<svg
   version="1.1"
   id="svg1"
   width="922.00006"
   height="939.51874"
   viewBox="0 0 922.00006 939.51874"
   sodipodi:docname="bitmap.png"
   xmlns:inkscape="http://www.inkscape.org/namespaces/inkscape"
   xmlns:sodipodi="http://sodipodi.sourceforge.net/DTD/sodipodi-0.dtd"
   xmlns="http://www.w3.org/2000/svg"
   xmlns:svg="http://www.w3.org/2000/svg">
  <defs
     id="defs1" />
  <sodipodi:namedview
     id="namedview1"
     pagecolor="#505050"
     bordercolor="#eeeeee"
     borderopacity="1"
     inkscape:showpageshadow="0"
     inkscape:pageopacity="0"
     inkscape:pagecheckerboard="0"
     inkscape:deskcolor="#505050"
     showguides="true">
    <sodipodi:guide
       position="459.59803,50.655102"
       orientation="1,0"
       id="guide3"
       inkscape:locked="false" />
    <sodipodi:guide
       position="1.6656492,357.94059"
       orientation="0.70710678,-0.70710678"
       id="guide4"
       inkscape:locked="false" />
    <sodipodi:guide
       position="919.53189,355.77338"
       orientation="-0.70710678,-0.70710678"
       id="guide5"
       inkscape:locked="false" />
    <sodipodi:guide
       position="758.35659,222.30077"
       orientation="0,-1"
       id="guide6"
       inkscape:locked="false" />
    <sodipodi:guide
       position="-0.04263084,356.60202"
       orientation="1,0"
       id="guide7"
       inkscape:locked="false" />
    <sodipodi:guide
       position="919.76139,512.45022"
       orientation="1,0"
       id="guide8"
       inkscape:locked="false" />
    <sodipodi:guide
       position="671.73009,1166.796"
       orientation="0,-1"
       id="guide9"
       inkscape:locked="false" />
  </sodipodi:namedview>
  <g
     inkscape:groupmode="layer"
     inkscape:label="Image"
     id="g1"
     transform="translate(-529.26361,-86.795959)">
    <path
       style="fill:#00ff00;fill-opacity:1"
       d="m 706.62384,1025.043 c -16.2138,-2.9427 -25.8282,-7.9534 -37.4788,-19.5328 -7.0051,-6.96224 -9.3807,-10.15007 -12.6898,-17.02836 -10.8304,-22.5119 -9.197,-49.64756 4.2016,-69.80196 8.2765,-12.44953 19.6909,-20.98923 35.3456,-26.44375 7.7341,-2.69477 10.409,-3.10566 22.8176,-3.50486 16.4139,-0.52806 25.8767,1.29023 38.1979,7.33977 6.3361,3.11097 19.2457,13.41131 19.2457,15.35586 0,0.38069 -4.2912,4.6537 -9.5359,9.49558 l -9.5359,8.80341 -4.9944,-4.67173 c -17.0894,-15.98513 -47.7708,-14.15168 -62.2461,3.71968 -6.7409,8.32249 -9.6718,16.8998 -9.6514,28.24547 0.023,12.91428 3.6748,22.47348 11.7784,30.83368 8.615,8.88791 21.655,13.50391 34.9897,12.38591 9.197,-0.77102 16.6413,-3.78929 24.0292,-9.74254 7.2408,-5.83475 5.8807,-6.20368 17.6256,4.78089 7.5848,7.09375 7.7253,7.31155 6.2078,9.62755 -2.573,3.9268 -14.7056,12.4126 -22.2762,15.5804 -13.2426,5.5412 -30.9512,7.2946 -46.0306,4.5578 z m 141.11634,0.5568 c -30.0015,-4.8187 -53.349,-25.79064 -59.0931,-53.08049 -2.133,-10.13377 -1.3907,-26.89663 1.6163,-36.5 7.2212,-23.06188 27.0269,-40.47188 52.3596,-46.0262 9.934,-2.1781 32.1418,-1.62199 40.6407,1.0177 13.6912,4.25239 27.7049,13.59243 35.6112,23.73466 20.2739,26.00748 19.1077,64.33012 -2.6813,88.10893 -9.51,10.3785 -19.8337,16.649 -34.0369,20.6734 -8.2235,2.3301 -26.1063,3.4067 -34.4165,2.072 z m 28.2427,-27.85575 c 17.5273,-6.74732 27.0325,-22.53596 26.1172,-43.38206 -0.3455,-7.87117 -0.906,-10.40163 -3.5583,-16.06601 -8.1706,-17.44969 -25.3027,-26.46338 -44.9971,-23.67431 -13.9377,1.97382 -24.6475,9.79012 -30.9853,22.61385 -3.3909,6.861 -3.7725,8.46554 -4.13,17.36664 -0.3194,7.95037 0.01,11.13674 1.739,16.82944 4.0394,13.29877 14.8246,23.87803 28.0953,27.55864 7.3554,2.04006 20.7466,1.43796 27.7192,-1.24619 z M 529.26359,957.51931 v -67 h 50.50003 50.50002 v 12 12 h -35.50002 -35.5 v 15 15 h 31 31.00002 v 12 12 h -31.00002 -31 v 15.5 15.5 h 36.5 36.50002 v 12.49999 12.5 h -51.50002 -51.50003 z m 428.00009,0.0996 v -67.0996 h 37.91202 c 42.1641,0 48.8854,0.67737 59.7728,6.02392 7.6922,3.77745 14.5462,11.14481 16.8661,18.12921 2.4444,7.35957 1.6265,18.68247 -1.8398,25.47022 -2.378,4.65652 -10.756,13.37665 -12.8519,13.37665 -2.2298,0 -0.4183,1.67823 3.5912,3.32701 6.466,2.65888 13.0218,8.89793 16.2434,15.45855 2.4903,5.07118 2.8018,6.78383 2.7668,15.21444 -0.033,7.9793 -0.4292,10.30037 -2.4744,14.49999 -4.9158,10.0943 -14.2248,16.5369 -28.9862,20.0609 -6.4047,1.529 -13.5971,1.8523 -49.25,2.2144 l -41.75002,0.424 z m 78.53992,42.36038 c 4.1562,-1.07387 6.999,-2.57183 9.3926,-4.94918 2.9651,-2.94491 3.4878,-4.19923 3.8385,-9.21003 0.3408,-4.86859 0.024,-6.3633 -1.9712,-9.30082 -1.3075,-1.925 -4.3848,-4.625 -6.8385,-6 -4.3541,-2.43991 -5.0321,-2.50792 -28.2113,-2.82932 l -23.75,-0.32927 v 17.07932 17.07931 h 20.7899 c 15.4729,0 22.3142,-0.3938 26.75,-1.53996 z m -1.6285,-57.45998 c 6.136,-3.47733 8.3008,-6.74617 8.3901,-12.66912 0.093,-6.17633 -2.3197,-10.39632 -7.7114,-13.48662 -3.879,-2.22328 -5.1867,-2.36083 -25.3401,-2.6654 l -21.25,-0.32114 v 16.15853 16.15852 l 20.75,-0.33738 c 19.9798,-0.32487 20.9137,-0.43019 25.1614,-2.83739 z m 101.0882,58.24999 -4e-4,-23.74999 -25.9522,-43.25 -25.9523,-43.25 16.2027,0.0291 16.2026,0.0291 17.5,29.4418 c 9.625,16.19302 17.7643,29.45493 18.0873,29.47092 0.323,0.016 8.6049,-13.24592 18.4043,-29.47092 l 17.8169,-29.5 h 71.3458 71.3457 v 12.5 12.5 h -21.5 -21.5 v 54.5 54.49999 h -15.5 -15.5 v -54.4801 -54.48011 l -21.25,-0.26989 -21.25,-0.26989 -0.5,-8.44175 -0.5,-8.44174 -23.75,39.61013 -23.75,39.61012 v 23.58163 23.5816 h -15 -15 z m 212.0004,-43.24999 v -67 h 50.5 50.5 v 11.98721 11.9872 l -35.25,0.2628 -35.25,0.26279 v 14.5 14.5 l 31.25,0.26425 31.25,0.26424 v 11.98576 11.98575 h -31.5 -31.5 v 15.5 15.5 h 37 37 v 12.49999 12.5 h -52 -52 z"
       id="path2"
       sodipodi:nodetypes="ssssssssscsssssssssssssssssssssssssssscccccccccccccccccccccccccccsssssssssssccsssssscccssssssscccssccccccsssccccccccccccccccccccccccccccccccccccccccccccccccc" />
    <path
       style="fill:#00ff00;fill-opacity:1"
       d="m 975.48542,836.404 c -8.1539,-1.45598 -22.8331,-6.6232 -30.0465,-10.57667 -21.4162,-11.73761 -36.7542,-29.60215 -44.2266,-51.51171 -2.9445,-8.63346 -3.2229,-10.58794 -3.6293,-25.48438 l -0.4401,-16.13379 25.3646,-0.67591 c 37.3831,-0.99617 155.90158,-1.18541 159.24698,-0.25426 l 2.8823,0.80225 -0.5413,15.19775 c -0.6111,17.1555 -2.4562,25.33799 -8.3758,37.14427 -9.6778,19.30152 -24.9613,33.88714 -45.656,43.57127 -12.431,5.81711 -22.1339,8.06641 -36.69158,8.50577 -6.875,0.20749 -14.924,-0.0556 -17.8867,-0.58459 z m 31.62928,-24.44039 c 24.5156,-5.78032 45.5544,-26.05689 53.1846,-51.25795 l 1.8896,-6.24063 h -71.42758 -71.4273 l 0.6749,2.75 c 3.4369,14.00302 9.5181,24.59429 20.2726,35.3077 9.7436,9.70633 19.9583,15.68823 32.3201,18.9272 9.0075,2.36012 25.63244,2.60755 34.51308,0.51368 z M 899.41772,717.41576 c -15.3242,-0.68666 -16.5777,-0.88962 -18.25,-2.9548 -2.6938,-3.32664 -2.4288,-11.14825 0.4926,-14.54465 l 2.2883,-2.66024 24.9617,-0.98833 c 27.4709,-1.08767 178.10878,-0.3361 185.46188,0.92532 3.7899,0.65016 4.7847,1.32423 6.3046,4.27197 2.0636,4.00245 1.7988,11.32522 -0.4925,13.61642 -1.0466,1.04662 -6.555,1.66009 -21.3612,2.37898 -22.7143,1.10285 -154.52868,1.07003 -179.40538,-0.0447 z m 10.9544,-33.0269 c -13.475,-0.41689 -25.7133,-1.22496 -27.1962,-1.7957 -3.0115,-1.15907 -4.1782,-4.912 -3.6265,-11.66503 0.4068,-4.97893 2.673,-6.18859 14.0432,-7.49594 11.305,-1.29986 182.72708,-1.24318 194.13858,0.0642 12.4887,1.43078 14.5988,2.73924 14.6257,9.06943 0.024,5.66213 -1.7657,9.62744 -4.675,10.35763 -8.7121,2.18659 -132.65738,3.15628 -187.30978,1.46542 z m -27.8247,-48.17762 c -3.5281,-1.69746 -5.8233,-7.20291 -10.6533,-25.55328 -2.4251,-9.21372 -6.0245,-20.52602 -7.9987,-25.13843 -7.341,-17.15125 -19.4881,-34.26448 -39.1018,-55.08798 -40.7406,-43.25346 -59.738,-71.7264 -72.3657,-108.46004 -8.6853,-25.2653 -12.0648,-45.78674 -12.7728,-77.56143 -0.7761,-34.82722 2.4895,-57.34654 12.8258,-88.44505 16.2725,-48.95873 49.152,-93.0073 91.9392,-123.17081 28.9113,-20.38142 66.6928,-36.593225 99.5645,-42.722465 19.9412,-3.71823 53.20084,-4.34606 79.38758,-1.49859 36.4208,3.9603 74.458,18.208985 107.8555,40.402425 49.5602,32.93399 86.0588,83.20906 101.6293,139.98944 10.1904,37.16077 12.0647,73.10366 5.9187,113.5 -6.6917,43.9832 -26.8806,85.30899 -60.8256,124.50734 -3.8928,4.49532 -13.7521,15.32182 -21.9094,24.0589 -29.9439,32.07212 -38.1872,46.60178 -47.2492,83.28133 -2.3613,9.55759 -5.0511,18.19308 -5.9899,19.23044 -3.6145,3.99394 -10.9385,3.18001 -16.6794,-1.85359 -3.5524,-3.11473 -1.2548,-25.90698 4.2565,-42.22442 5.8355,-17.27737 19.4136,-41.00734 33.4732,-58.5 3.0944,-3.85 13.0129,-14.875 22.0409,-24.5 27.5217,-29.34132 38.9239,-44.80616 50.5047,-68.5 9.6775,-19.79992 16.4877,-41.25588 20.6447,-65.04295 1.3256,-7.58554 1.7488,-15.79232 1.7767,-34.45705 0.041,-27.17203 -1.3843,-38.55255 -7.5616,-60.39055 -22.0935,-78.10592 -82.5133,-138.42273 -161.3732,-161.09816 -18.1241,-5.21142 -25.5116,-5.95985 -59.01198,-5.97855 -27.5778,-0.0154 -32.3248,0.2236 -43,2.16492 -22.783,4.14316 -52.7354,15.85386 -75.0986,29.36189 -50.1158,30.27136 -88.3094,81.21746 -102.8423,137.18045 -5.8469,22.51539 -7.0459,32.4272 -7.0472,58.26 0,40.20473 6.0333,68.13706 21.3985,99.03459 11.9155,23.96071 24.2995,40.77179 50.0672,67.96541 25.3931,26.79831 37.927,43.51001 48.0269,64.03526 5.7482,11.68146 11.2049,27.70321 13.4298,39.43199 2.9117,15.34916 1.6626,21.85624 -5.0742,26.43398 -4.2241,2.87034 -4.8131,2.96714 -8.1848,1.34498 z m 102.8247,-159.24621 v -38.5 h -36 c -35.104,0 -36,0.0489 -36,1.96249 0,3.47126 -4.1916,13.37422 -8.1233,19.1919 -16.6458,24.63048 -53.3022,26.86867 -73.5319,4.48976 -23.5699,-26.07406 -10.8909,-68.23427 23.1901,-77.11124 25.2859,-6.58612 51.2555,8.94665 57.8141,34.57942 l 1.3786,5.38767 35.6362,0.26263 35.6362,0.26263 v -74.39391 -74.39392 l -4.75,-1.17913 c -12.2491,-3.04066 -24.2052,-11.94803 -30.1867,-22.48929 -8.1949,-14.44176 -8.1736,-32.73536 0.055,-47.23445 5.7375,-10.10958 18.5721,-19.64102 29.9933,-22.27402 5.6264,-1.29709 16.15004,-1.29709 21.77648,0 16.2066,3.73622 31.3152,18.84581 35.0519,35.05412 1.2965,5.62381 1.2962,16.1482 -6e-4,21.77356 -3.7239,16.15304 -17.8562,30.60837 -33.987,34.76374 l -6.95254,1.79102 v 36.29083 36.29083 l 36.72264,-0.26232 36.7225,-0.26232 0.7265,-4.25671 c 1.2245,-7.17546 7.4678,-17.694 14.2039,-23.93042 21.8655,-20.24358 56.134,-15.64342 72.1209,9.6814 8.7583,13.87403 8.7981,34.58923 0.095,49.43984 -3.2894,5.61293 -12.1954,13.82475 -18.4074,16.97259 -10.8365,5.4913 -21.4277,6.80302 -32.9656,4.08278 -18.2403,-4.30043 -31.3161,-18.14646 -35.6519,-37.75193 l -0.611,-2.76245 -36.2278,0.26245 -36.22774,0.26245 -0.2563,76.25 -0.2562,76.25 h -5.49384 -5.4937 z m -112.4739,-8.58946 c 8.1357,-1.50397 14.1641,-4.80293 19.8136,-10.84267 7.3541,-7.86209 9.9951,-14.54269 9.9453,-25.15698 -0.033,-7.12783 -0.4978,-9.69595 -2.5733,-14.22937 -3.3885,-7.40143 -9.3683,-13.67436 -16.9596,-17.79108 -5.9214,-3.21108 -6.7811,-3.39044 -16.2521,-3.39044 -8.9437,0 -10.6063,0.29773 -15.7395,2.81838 -7.3306,3.59975 -13.8708,10.15052 -17.4155,17.44363 -2.4534,5.04784 -2.7888,6.88062 -2.7888,15.23799 0,8.35737 0.3354,10.19015 2.7888,15.23799 5.0858,10.46393 14.4159,17.8726 25.655,20.37151 7.1068,1.58016 6.6604,1.57022 13.5261,0.30104 z m 258.51958,-78.07136 c 28.6673,-13.1374 28.6401,-52.57207 -0.046,-66.21325 -5.6443,-2.6841 -7.5531,-3.08281 -14.5,-3.02879 -14.8994,0.11585 -26.2971,7.15143 -32.7194,20.19701 -3.0256,6.14585 -3.2775,7.40382 -3.2402,16.18482 0.032,7.57489 0.4822,10.48576 2.2015,14.24073 2.2641,4.94468 8.6505,12.49942 13.4639,15.92686 8.9951,6.40509 24.1782,7.57852 34.8398,2.69262 z M 1007.1395,263.94503 c 7.8348,-3.91961 12.7873,-8.798 16.9476,-16.6941 2.5343,-4.80996 2.7851,-6.2313 2.7851,-15.7859 0,-10.04455 -0.1475,-10.77189 -3.3991,-16.76834 -16.3004,-30.0597 -60.65998,-23.84294 -67.60698,9.47474 -3.4497,16.54494 4.2054,32.00267 19.6834,39.74597 6.4987,3.25118 7.8209,3.54763 15.8226,3.54763 7.98884,0 9.32968,-0.29933 15.76738,-3.52 z"
       id="path3"
       sodipodi:nodetypes="sssscsscssssssscccssssssscsssssssssssssssssssssssssssssssssssscssccssssscssssssccsssssscccccsssssscscccccsssssssccccccccsscssssssssssssscssssssscssss" />
  </g>
</svg>
